<svg xmlns="http://www.w3.org/2000/svg" xmlns:xlink="http://www.w3.org/1999/xlink" version="1.1" x="0px" y="0px" viewBox="0 0 100 125" enable-background="new 0 0 100 100" xml:space="preserve"><path d="M50,6.5C26.014,6.5,6.5,26.014,6.5,50S26.014,93.5,50,93.5S93.5,73.986,93.5,50S73.986,6.5,50,6.5z M50,90.5  C27.668,90.5,9.5,72.332,9.5,50S27.668,9.5,50,9.5S90.5,27.668,90.5,50S72.332,90.5,50,90.5z M73.224,63.667H26.776  c-0.828,0-1.5,0.671-1.5,1.5s0.672,1.5,1.5,1.5h46.447c0.828,0,1.5-0.671,1.5-1.5S74.052,63.667,73.224,63.667z M32.224,45.5  c3.492,0,6.333-2.841,6.333-6.333s-2.841-6.333-6.333-6.333s-6.333,2.841-6.333,6.333S28.731,45.5,32.224,45.5z M32.224,35.833  c1.838,0,3.333,1.496,3.333,3.333S34.062,42.5,32.224,42.5s-3.333-1.495-3.333-3.333S30.386,35.833,32.224,35.833z M67.776,45.5  c3.492,0,6.333-2.841,6.333-6.333s-2.841-6.333-6.333-6.333s-6.333,2.841-6.333,6.333S64.284,45.5,67.776,45.5z M67.776,35.833  c1.838,0,3.333,1.496,3.333,3.333S69.614,42.5,67.776,42.5s-3.333-1.495-3.333-3.333S65.938,35.833,67.776,35.833z"/><text x="0" y="115" fill="#000000" font-size="5px" font-weight="bold" font-family="'Helvetica Neue', Helvetica, Arial-Unicode, Arial, Sans-serif">Created by Kidiladon</text><text x="0" y="120" fill="#000000" font-size="5px" font-weight="bold" font-family="'Helvetica Neue', Helvetica, Arial-Unicode, Arial, Sans-serif">from the Noun Project</text></svg>