<svg xmlns="http://www.w3.org/2000/svg" xmlns:xlink="http://www.w3.org/1999/xlink" version="1.1" x="0px" y="0px" viewBox="0 0 100 125" enable-background="new 0 0 100 100" xml:space="preserve"><path d="M73.224,64.167H26.776c-0.828,0-1.5,0.672-1.5,1.5s0.672,1.5,1.5,1.5h46.447c0.828,0,1.5-0.672,1.5-1.5  S74.052,64.167,73.224,64.167z M32.224,46c3.492,0,6.333-2.841,6.333-6.333s-2.841-6.333-6.333-6.333s-6.333,2.841-6.333,6.333  S28.731,46,32.224,46z M32.224,36.334c1.838,0,3.333,1.495,3.333,3.333S34.062,43,32.224,43s-3.333-1.495-3.333-3.333  S30.386,36.334,32.224,36.334z M67.776,46c3.492,0,6.333-2.841,6.333-6.333s-2.841-6.333-6.333-6.333s-6.333,2.841-6.333,6.333  S64.284,46,67.776,46z M67.776,36.334c1.838,0,3.333,1.495,3.333,3.333S69.614,43,67.776,43s-3.333-1.495-3.333-3.333  S65.938,36.334,67.776,36.334z M70.75,5.75h-41.5c-12.958,0-23.5,10.542-23.5,23.5v41.5c0,12.958,10.542,23.5,23.5,23.5h41.5  c12.958,0,23.5-10.542,23.5-23.5v-41.5C94.25,16.292,83.708,5.75,70.75,5.75z M91.25,70.75c0,11.304-9.196,20.5-20.5,20.5h-41.5  c-11.304,0-20.5-9.196-20.5-20.5v-41.5c0-11.304,9.196-20.5,20.5-20.5h41.5c11.304,0,20.5,9.196,20.5,20.5V70.75z"/><text x="0" y="115" fill="#000000" font-size="5px" font-weight="bold" font-family="'Helvetica Neue', Helvetica, Arial-Unicode, Arial, Sans-serif">Created by Kidiladon</text><text x="0" y="120" fill="#000000" font-size="5px" font-weight="bold" font-family="'Helvetica Neue', Helvetica, Arial-Unicode, Arial, Sans-serif">from the Noun Project</text></svg>